<svg id="Layer_1" data-name="Layer 1" xmlns="http://www.w3.org/2000/svg" viewBox="0 0 450.15 450.02"><defs><style>.cls-1{fill:#232323;}</style></defs><path class="cls-1" d="M474.3,347.75c-3.83-35-20.67-62.37-49.39-82.45-14.49-10.13-30.76-16.08-48.17-19l-.47,0q0-88.92,0-177.86c0-14-6.56-24.62-18.85-31.09s-24.3-5.31-35.76,2.4c-10.17,6.84-21.28,6.44-30.83-1.13-22.87-18.1-50.72-18.18-73.7-.2-10.5,8.21-22.46,8.25-32.85.12-23.07-18.08-50.61-18-73.65.11-9.6,7.57-20.73,8-30.83,1.13C73,35.13,65.48,32.7,57.27,33.62,37.69,35.8,25.16,50.14,25.15,70.05c0,110.87.24,221.74-.22,332.6C24.84,423,40.48,440.59,62.7,440.41c71.47-.56,142.94-.21,214.41-.21h.45l1.84,2.13c.93.75,1.9,1.45,2.79,2.24,26.1,22.85,56.14,33.5,91,29.69,25.34-2.76,47.52-12.73,65.71-30.29C466,417.78,478.43,385.61,474.3,347.75Zm-224.67,58.9H69.09c-10.5,0-10.5,0-10.5-10.37q0-159.36,0-318.71c0-1.5,0-3,0-4.49.26-5.13,1.16-5.63,5.65-3.16,23,12.66,45.16,11.27,66.33-4.36,3.22-2.37,6.44-4.66,10.42-5.72,9.22-2.46,16.79.7,24.1,6.16,21.61,16.15,49,16.72,70,.77,12.49-9.48,24.27-11.27,37.73.29a13.33,13.33,0,0,0,1.62,1.17c19.25,12.42,39.22,13.46,59.66,3.36,8.85-4.37,8.72-4.66,8.72,5.51q0,82,0,164.09c0,1.62-.18,3.3,0,4.91-3.91-.66-7.64.62-11.35,1.63q-44.19,12-69.37,50.22c-.35.56-.68,1.14-1,1.71q-44-.11-87.94-.17c-9.64,0-16.66,6.21-17.26,15s5.57,15.61,15.19,17.08c1.65-.06,3.3-.17,4.95-.17,23.91,0,47.81-.07,71.72.07-1.18,4.13-1.92,8-2.22,9.66q0,.12,0,.21c-.07.45-.11.68-.11.68-.23,1.48-.43,3-.62,4.46a114.38,114.38,0,0,0,7.64,57.29,18.9,18.9,0,0,0,1.36,2.83C252.42,406.61,251,406.66,249.63,406.65Zm110.65,35.67a82.09,82.09,0,0,1-81.95-82.56c.08-44.85,37-81.55,82-81.54a82.05,82.05,0,1,1-.08,164.1Z" transform="translate(-24.93 -24.99)"/><path class="cls-1" d="M173.69,168.9c19.08-.47,38.18-.13,57.27-.13,19.26,0,38.52,0,57.78,0,10.15,0,17.36-6.54,17.52-15.73s-7.34-16.21-17.59-16.22q-57.54,0-115.06,0c-10.46,0-17.66,6.61-17.71,16C155.85,160.75,162.89,169.17,173.69,168.9Z" transform="translate(-24.93 -24.99)"/><path class="cls-1" d="M171.9,251.63c19.76.23,39.52.06,59.28.06v0c19.25,0,38.51.06,57.77,0,10.08,0,17.32-6.85,17.31-16s-7.45-16-17.31-16.07c-7.14,0-14.28,0-21.42,0q-47.07,0-94.14,0c-7.33,0-12.91,2.86-16,9.61C152.53,239.77,160,251.49,171.9,251.63Z" transform="translate(-24.93 -24.99)"/><path class="cls-1" d="M133.82,235.76a19.28,19.28,0,0,0-38.56-.19C95.07,246,104,255,114.49,255.05A19.37,19.37,0,0,0,133.82,235.76Z" transform="translate(-24.93 -24.99)"/><path class="cls-1" d="M114.74,296.44a19.34,19.34,0,0,0-19.48,19.13,19.29,19.29,0,0,0,38.57.33A19.26,19.26,0,0,0,114.74,296.44Z" transform="translate(-24.93 -24.99)"/><path class="cls-1" d="M114.83,133.73a19.13,19.13,0,1,0,19,19.47A19.23,19.23,0,0,0,114.83,133.73Z" transform="translate(-24.93 -24.99)"/><path class="cls-1" d="M395,348.74c3.31-3.29,4.75-7.4,5.36-12.05-.92-6.27-3.22-11.61-9.56-14.58-6.72-3.16-12.69-1.74-18.05,2.75a73.07,73.07,0,0,0-9.06,9.05c-2.61,3.12-4.41,2.66-6.83-.16a110.81,110.81,0,0,0-8.3-8.35c-7.09-6.66-17-6.65-23.43,0s-6.23,16.13.28,23.06c3,3.23,6.16,6.4,9.43,9.4,2,1.88,1.83,3.2-.09,5-3.13,2.9-6.13,5.95-9.07,9.05-6.51,6.85-6.55,16.57-.19,22.93,6.67,6.67,16.35,6.75,23.33.11,3.09-2.94,6.15-5.93,9-9.07,1.83-2,3.16-2,5,0,2.89,3.14,5.95,6.13,9,9.08,6.79,6.47,16.47,6.53,23,.21s6.72-16.37.11-23.33c-2.94-3.1-5.93-6.16-9.07-9.05-2-1.84-1.93-3.16,0-5C389.08,354.88,392,351.75,395,348.74Z" transform="translate(-24.93 -24.99)"/></svg>